<svg xmlns:xlink="http://www.w3.org/1999/xlink" width="50.00000450876723" xmlns="http://www.w3.org/2000/svg" id="screenshot" version="1.1" viewBox="-0.12611138287388712 -0.49997849098508595 50.00000450876723 50.00000450876723" height="50.00000450876723" style="-webkit-print-color-adjust: exact;"><g id="shape-8b52c610-4338-11ec-8725-e51a7987b0eb" width="24" height="24"><g id="shape-8b544cb0-4338-11ec-8725-e51a7987b0eb"><path d="m24.87389050789932,35.61113523812037L38.762779396788005,24.500024127009056L24.87389050789932,13.388913015897742L24.87389050789932,21.722246349231682L-0.12610949210068156,21.722246349231682L-0.12610949210068156,27.27780190478734L24.87389050789932,27.27780190478734Z" style="fill: rgb(255, 124, 0); fill-opacity: 1;"/></g><g id="shape-8b555e20-4338-11ec-8725-e51a7987b0eb"><path d="M44.318334952343434,-0.4999758729909445L19.318334952343662,-0.4999758729909445C16.25444606345502,-0.4999758729909445,13.762779396788233,1.9916907936758435,13.762779396788233,5.055579682564712L13.762779396788233,16.166690793676025L19.318334952343662,16.166690793676025L19.318334952343662,5.055579682564712L44.318334952343434,5.055579682564712L44.318334952343434,43.944468571453854L19.318334952343662,43.944468571453854L19.318334952343662,32.833357460342086L13.762779396788233,32.833357460342086L13.762779396788233,43.944468571453854C13.762779396788233,47.00835746034272,16.25444606345502,49.5000241270086,19.318334952343662,49.5000241270086L44.318334952343434,49.5000241270086C47.38222384123253,49.5000241270086,49.87389050789932,47.00835746034272,49.87389050789932,43.944468571453854L49.87389050789932,5.055579682564712C49.87389050789932,1.9916907936758435,47.38222384123253,-0.4999758729909445,44.318334952343434,-0.4999758729909445ZZ" style="fill: rgb(255, 124, 0); fill-opacity: 1;"/></g></g></svg>