<svg xmlns:xlink="http://www.w3.org/1999/xlink" width="50" xmlns="http://www.w3.org/2000/svg" id="screenshot" version="1.1" viewBox="-0.000007377097290373058 0.000001915459506562911 50 50" height="50" style="-webkit-print-color-adjust: exact;"><g id="shape-cbdd1840-4372-11ec-8616-0db0fd1fbe4d" width="24" height="24"><g id="shape-cbdec5f0-4372-11ec-8616-0db0fd1fbe4d"><path d="M44.99999262290271,0.000001915459506562911L14.99999262290271,0.000001915459506562911C12.238568873748363,0.000001915459506562911,9.99999262290271,2.2385781663060698,9.99999262290271,5.000001915459507L9.99999262290271,35.00000191545951C9.99999262290271,37.76142566461294,12.238568873748363,40.00000191545951,14.99999262290271,40.00000191545951L44.99999262290271,40.00000191545951C47.761416372057056,40.00000191545951,49.99999262290271,37.76142566461294,49.99999262290271,35.00000191545951L49.99999262290271,5.000001915459507C49.99999262290271,2.2385781663060698,47.761416372057056,0.000001915459506562911,44.99999262290271,0.000001915459506562911ZZM27.667492622902273,31.202501915459834L19.482492622902782,23.017501915459434L23.017492622902637,19.48250191545958L27.332492622903146,23.79750191545918L38.07999262290264,10.900001915460052L41.92249262290238,14.10250191545947L27.667492622902273,31.202501915459834ZZ" style="fill: rgb(0, 121, 255); fill-opacity: 1;"/></g><g id="shape-cbdf1410-4372-11ec-8616-0db0fd1fbe4d"><path d="M4.99999262290271,50.00000191545951L32.49999262290271,50.00000191545951L32.49999262290271,45.00000191545951L4.99999262290271,45.00000191545951L4.99999262290271,15.000001915459507L-0.000007377097290373058,15.000001915459507L-0.000007377097290373058,45.00000191545951C-0.000007377097290373058,47.757501915459216,2.2424926229030007,50.00000191545951,4.99999262290271,50.00000191545951ZZ" style="fill: rgb(0, 121, 255); fill-opacity: 1;"/></g></g></svg>