<svg xmlns:xlink="http://www.w3.org/1999/xlink" width="50.01092920334895" xmlns="http://www.w3.org/2000/svg" id="screenshot" version="1.1" viewBox="-0.010934359557722928 0.13454550387223208 50.01092920334895 50.00000349142192" height="50.00000349142192" style="-webkit-print-color-adjust: exact;"><g id="shape-e953aab0-4372-11ec-8616-0db0fd1fbe4d" width="24" height="24"><g id="shape-e955a680-4372-11ec-8616-0db0fd1fbe4d"><path d="M46.24999309846248,7.634547249583193C44.17892528659718,7.634547249583193,42.49999309846248,9.313479437717433,42.49999309846248,11.384547249583193L42.49999309846248,22.634547249583193L39.99999309846248,22.634547249583193L39.99999309846248,6.384547249583193C39.99999309846248,4.313479437717433,38.32106091032824,2.6345472495831928,36.24999309846248,2.6345472495831928C34.17892528659718,2.6345472495831928,32.49999309846248,4.313479437717433,32.49999309846248,6.384547249583193L32.49999309846248,22.634547249583193L29.999993098462483,22.634547249583193L29.999993098462483,3.8845472495831928C29.999993098462483,1.813479437717433,28.321060910328242,0.13454724958319275,26.249993098462483,0.13454724958319275C24.178925286597178,0.13454724958319275,22.499993098462483,1.813479437717433,22.499993098462483,3.8845472495831928L22.499993098462483,22.634547249583193L19.999993098462483,22.634547249583193L19.999993098462483,8.884547249583193C19.999993098462483,6.813479437717433,18.321060910328242,5.134547249583193,16.249993098462483,5.134547249583193C14.178925286597178,5.134547249583193,12.499993098462483,6.813479437717433,12.499993098462483,8.884547249583193L12.499993098462483,35.90954724958283L6.949993098462755,26.90954724958283C5.85923070683225,25.142236069596038,3.542304299009402,24.593784904606764,1.7749931108944565,25.68454728306915C0.007681922779966044,26.775309661532447,-0.5407692594710625,29.09223606526848,0.5499931058241145,30.85954726150976L8.824993098462755,44.20954724958392C11.101867179909505,47.89100517111092,15.121334690849608,50.13244940662298,19.449993098462755,50.13454724958319L37.49999309846248,50.13454724958319C44.40355247134744,50.13454724958319,49.99999309846248,44.53810662246815,49.99999309846248,37.63454724958319L49.99999309846248,11.384547249583193C49.99999309846248,9.313479437717433,48.32106091032824,7.634547249583193,46.24999309846248,7.634547249583193ZZ" style="fill: rgb(18, 209, 0); fill-opacity: 1;"/></g></g></svg>