<svg xmlns:xlink="http://www.w3.org/1999/xlink" width="45.00000174532943" xmlns="http://www.w3.org/2000/svg" id="screenshot" version="1.1" viewBox="-8.72664941198309e-7 0.13454777318202105 45.00000174532943 50.000001570796485" height="50.000001570796485" style="-webkit-print-color-adjust: exact;"><g id="shape-76133db0-43ca-11ec-982f-d19dd2f2ebc8" width="24" height="24"><g id="shape-76153980-43ca-11ec-982f-d19dd2f2ebc8"><path d="M39.99999999999977,5.134548558579809L32.49999999999977,5.134548558579809L32.49999999999977,0.13454855857980874L27.499999999999773,0.13454855857980874L27.499999999999773,5.134548558579809L17.499999999999773,5.134548558579809L17.499999999999773,0.13454855857980874L12.499999999999773,0.13454855857980874L12.499999999999773,5.134548558579809L4.999999999999773,5.134548558579809C2.242499999999609,5.134548558579809,-2.2737367544323206e-13,7.3770485585801,-2.2737367544323206e-13,10.134548558579809L-2.2737367544323206e-13,45.13454855857981C-2.2737367544323206e-13,47.89204855857952,2.242499999999609,50.13454855857981,4.999999999999773,50.13454855857981L39.99999999999977,50.13454855857981C42.757499999999936,50.13454855857981,44.99999999999977,47.89204855857952,44.99999999999977,45.13454855857981L44.99999999999977,10.134548558579809C44.99999999999977,7.3770485585801,42.757499999999936,5.134548558579809,39.99999999999977,5.134548558579809ZZM22.499999999999773,30.13454855857981L9.999999999999773,30.13454855857981L9.999999999999773,25.13454855857981L22.499999999999773,25.13454855857981L22.499999999999773,30.13454855857981ZZM34.99999999999977,20.13454855857981L9.999999999999773,20.13454855857981L9.999999999999773,15.134548558579809L34.99999999999977,15.134548558579809L34.99999999999977,20.13454855857981ZZ" style="fill: rgb(148, 148, 148); fill-opacity: 1;"/></g></g></svg>