<svg xmlns:xlink="http://www.w3.org/1999/xlink" width="23.909727691007106" xmlns="http://www.w3.org/2000/svg" id="screenshot" version="1.1" viewBox="-3.3829587664513383e-7 0.0902718961899609 23.909727691007106 23.90972769100722" height="23.90972769100722" style="-webkit-print-color-adjust: exact;"><g id="shape-2d62ea40-596c-11ec-ba2b-296b98400e84"><g id="shape-d92b7780-596b-11ec-ba2b-296b98400e84"><ellipse cx="12" cy="12" rx="12" ry="12" transform="matrix(0.9999999870766877,0,0,0.9999999870766931,1.5507974815420766e-7,1.550796824290046e-7)" style="fill: rgb(0, 0, 0); fill-opacity: 1;"/></g><g id="shape-de959340-596b-11ec-ba2b-296b98400e84"><g id="shape-de99b1f0-596b-11ec-ba2b-296b98400e84"><path d="M5.641257005987654,13.662580280312795C5.598588722365889,13.615599548590126,5.55920059599066,13.565741160773541,5.523371183818767,13.5133577206052C5.436822099188589,13.39397967283935,5.354749691349525,13.270124948282046,5.277153960301575,13.146270223724969L4.884698628271167,12.526996600939128C4.756504556032382,12.362512123011129,4.678290616486606,12.164646395153568,4.659372563113038,11.956966422857022C4.650928895817742,11.77858016353116,4.757194737660143,11.614678610858846,4.923496493795142,11.549588834855967C4.910066463421458,11.31530941611527,4.901113109839002,11.07804554618042,4.901113109839002,10.842273901842873C4.901113109839002,10.703496921315036,4.901113109839002,10.561735489593048,4.908574237824382,10.42445073466206C4.914656370588887,10.336378792356754,4.930675150161392,10.249276678431897,4.956325456930699,10.164803480771297C5.065498715878562,9.810344715867814,5.302760750459129,9.509245362566162,5.621858073225781,9.320203792827215C5.736415503209287,9.254109041391757,5.856795521530898,9.198664302662792,5.981484442120518,9.15456675155201C6.209794958472912,9.071002118116212,6.099370264289405,8.721821328400893,6.350064164597825,8.715852426012589C6.935016598650918,8.70093017004183,7.897502108763547,9.202317970658441,8.272050733629158,9.6111877842568C8.517383830254516,9.871730672533204,8.654480080228609,10.215804918577305,8.65555271207711,10.573673294369655L8.631677102524009,11.598832279559474C8.735822430511348,11.624315881870189,8.817354171176476,11.705273455347651,8.843573137308454,11.80923608874673C8.865656968647045,11.996481077104818,8.826943198690287,12.185864654460147,8.733148443124946,12.349421754887544L8.733148443124946,12.349421754887544C8.733148443124946,12.358375108470227,8.725687315139567,12.358375108470227,8.725687315139567,12.36583623645538L8.278019636017348,13.10150345581269C8.176548295416296,13.267140497088121,8.072092503621207,13.437254215154553,7.954206681452433,13.592445677250225C7.815429700924483,13.778973876884265,7.700528329949748,13.741668236957594,7.819906377715711,13.923719759800406C7.876044972993441,13.995798558279603,7.939560641081812,14.06181484322201,8.00941902854413,14.120693538614432C7.152881535823667,14.50121106586812,6.4798877915433195,15.150329200595479,6.4798877915433195,16.67986043759629L2.786629438785212,16.67986043759629C2.786629438785212,14.344527378175371,4.826501829985318,15.087655725518289,5.678562645914553,13.913274180621102C5.777049535321453,13.764051620913733,5.7516817001711615,13.780466102481569,5.641257005987654,13.662580280312795ZZM10.844647662984585,13.443223117542857C10.574554829914291,13.204467022010931,10.23581961937839,12.995555438420524,10.191052851466225,12.498644314594912L10.16120833952482,12.498644314594912C10.094191931201067,12.498779332776166,10.02831923662859,12.481281898280486,9.970203463099324,12.447908644294557C9.87435067191825,12.387808059635972,9.800534727157242,12.298286594712863,9.759799653911841,12.192738067194796C9.662804990102131,11.96890422763363,9.585209259054182,11.382459567983688,9.829934256974411,11.213838075514559L9.783675263465057,11.183993563572812L9.783675263465057,11.11833563730147C9.7747219098826,11.00044981513247,9.771737458688449,10.857196157813632,9.76875300749441,10.706481372509188C9.759799653911841,10.154357901591766,9.749354074732423,9.485840834102646,9.304670846804356,9.351540530366037L9.115158195975937,9.293343732079848L9.240505146130204,9.144121172372706C9.568385315035698,8.72782799689503,9.94121194364709,8.348996107151834,10.352213215950314,8.014506395387798C10.717156522765322,7.699415180956294,11.156175579450633,7.482216279227487,11.628066101448553,7.38329496782535C12.076602143718333,7.311313224722426,12.534156057011955,7.439471948946448,12.880043377393577,7.733967983137745C13.003626146244187,7.834132139942085,13.116179001011233,7.947185229619208,13.215794136735212,8.071210968076684C13.61823359088828,8.115215490883202,13.9829032245608,8.328482107004447,14.218569737968892,8.657655627726399C14.366922327298994,8.855124661014543,14.47769692923066,9.078191325178523,14.545367143728072,9.315727116036214C14.615525181483122,9.557901534303255,14.645271270622402,9.809987035484482,14.633408453955553,10.061839914573284C14.620290384933242,10.517282931079535,14.434050706164612,10.950597026094783,14.112621720576612,11.27352709939737C14.169198663120369,11.275694745127112,14.224657205174708,11.289940976113485,14.275274310657665,11.31530941611527C14.460310284694856,11.413796305522283,14.46627918708316,11.63016901709807,14.424496870365147,11.810728314344033C14.376745651258716,11.959950874051401,14.315564401778715,12.136033494506137,14.257367603492753,12.282271603019126C14.18723300043041,12.480737607430001,14.085761659829245,12.5180432473569,13.887295655418484,12.497152088998064C13.878342301836028,12.982125408047068,13.523192609732405,13.180591412457716,13.22027081352644,13.462622050304617C13.966383612063396,14.844422953195135,16.86428572158104,13.932673113383316,16.86428572158104,16.67986043759629L7.185710498959338,16.67986043759629C7.185710498959338,13.932673113383316,10.020939133399793,14.889189721107414,10.841663211790546,13.444715343139706ZM16.250981001183618,13.768528297704961C16.210755472133314,13.723783501888192,16.172900594085263,13.676962994828955,16.137571855806073,13.628259091579821C16.055499447966895,13.5133577206052,15.974919265724907,13.39397967283935,15.900307985871223,13.273109399476198L15.52277490981146,12.676219160646724C15.398022967285328,12.517705808968458,15.321836299047163,12.326461723391276,15.303417747041635,12.125587915326378C15.295723562344733,11.953200467522038,15.399064565626531,11.795184863666691,15.560080549738359,11.733132583296083C15.546650519364675,11.50780651813784,15.53769716578222,11.278003776188598,15.53769716578222,11.051185485433052C15.53769716578222,10.915392956099367,15.53769716578222,10.779600426765683,15.53769716578222,10.64679234862615C15.542786832705247,10.56225599714071,15.557812531377635,10.478612941197753,15.582463933694498,10.397590673914692C15.687475605084956,10.055602734965987,15.916274295139488,9.765081607594311,16.22412094043625,9.582835497912356C16.334762903924116,9.515829581985827,16.4517177680126,9.459851185499247,16.57330173015157,9.415706231040076C16.79265889292151,9.335126048797974,16.68671087552923,8.997883063859263,16.928451422255193,8.993406387068262C17.492512697949223,8.978484131097503,18.42067701932922,9.461965224549658,18.78328783941822,9.854420556579953C19.020000881106853,10.105610111714896,19.152304222827297,10.437435428448907,19.15335978749249,10.782584877959835L19.12948417793939,11.771930448820058C19.230493017126378,11.795530523294019,19.309579662001283,11.874039893388726,19.333919084738454,11.974873130021933C19.355778835925662,12.155355410049197,19.318608911137858,12.338063913583937,19.227971067346175,12.49565986340076L19.227971067346175,12.49565986340076C19.227971067346175,12.49565986340076,19.220509939360795,12.49565986340076,19.220509939360795,12.51058211937152L18.790748967403488,13.220881503578767C18.69226207799659,13.380549642465667,18.592282962992726,13.544694458144022,18.478873817615067,13.695409243448466C18.343081288281383,13.874476315097127,18.232656594097875,13.844631803155607,18.347557965072497,14.014745521221812C19.171266494657402,15.147344749401327,21.12309757563014,14.432568688402853,21.12309757563014,16.68433711438729L17.559662849817528,16.68433711438729C17.559662849817528,15.23240160843443,16.93889700143461,14.566868992139462,16.137571855806073,14.175905885706015C16.18858992676519,14.12604890428429,16.235498766998717,14.072153641037403,16.277841061930985,14.014745521221812C16.371851274546657,13.875968540694203,16.34797566499344,13.886414119873734,16.240535422004086,13.773004974495962Z" style="fill: rgb(255, 255, 255); fill-opacity: 1;"/></g></g></g></svg>