<svg xmlns:xlink="http://www.w3.org/1999/xlink" width="371.00000061601474" xmlns="http://www.w3.org/2000/svg" id="screenshot" version="1.1" viewBox="0.3440870407736156 -0.4661228927487855 371.00000061601474 287.71612936791996" height="287.71612936791996" style="-webkit-print-color-adjust: exact;"><g id="shape-fe6aa6b0-41d3-11ec-a301-e199886513ad"><g id="shape-de412941-41d3-11ec-a301-e199886513ad"><path d="M83.81728720801266,85.67111385041039C21.6563972059364,85.67111385041039,0.34409206236750833,133.36496042269414,0.34409206236750833,164.7042454244786C0.34409206236750833,192.76916657557126,23.43242263456716,217.98500828340093,23.43242263456716,217.98500828340093L23.43242263456716,287.25L116.67375763768132,287.25L116.67375763768132,257.94558042759286C116.67375763768132,257.94558042759286,134.18536836398061,260.64513907911146,144.20215178145781,247.2894278558083C149.65399483940791,240.02030377854157,150.44439969776636,237.3812113638553,151.30625349598085,231.33258737336382C152.79157599928658,220.90836304932554,151.30625349598085,209.10488114024724,151.30625349598085,209.10488114024724C151.30625349598085,209.10488114024724,160.12252354507154,210.7225941898464,166.85146483197354,206.61046340340636C170.77867611685588,204.21050095153373,169.95452049660366,198.44872856846268,169.95452049660366,198.44872856846268L153.97029163892694,157.60014370995555C153.97029163892694,157.60014370995555,154.34456066948042,135.63223542964602,139.10886987291042,115.59829136272765C127.99093334568352,100.97892677335471,108.37638883829709,85.67111385041039,83.81728720801266,85.67111385041039Z" style="fill: rgb(55, 0, 231); fill-opacity: 1;"/></g><g id="shape-de412943-41d3-11ec-a301-e199886513ad"><ellipse cx="77" cy="120" rx="12" ry="12" transform="matrix(1.0000000119499108,1.7453292728508704e-8,-1.7453292728508326e-8,1.0000000119499017,0.0000011742519916424499,-0.0000027778917370824274)" style="fill: rgb(255, 255, 255); fill-opacity: 1;"/></g><g id="shape-de412944-41d3-11ec-a301-e199886513ad"><ellipse cx="77" cy="151" rx="12" ry="12" transform="matrix(1.000000011949911,3.3087224897510487e-23,2.3161057428257233e-23,1.0000000119499004,-9.20143151006414e-7,-0.0000018044349587853503)" style="fill: rgb(255, 255, 255); fill-opacity: 1;"/></g><g id="shape-de412945-41d3-11ec-a301-e199886513ad"><ellipse cx="109" cy="151" rx="12" ry="12" transform="matrix(1.0000000119499084,1.1580528575742387e-22,1.0587911840678754e-22,1.0000000119499006,-0.0000013025400136257304,-0.0000018044349872070597)" style="fill: rgb(255, 255, 255); fill-opacity: 1;"/></g><g id="shape-de415050-41d3-11ec-a301-e199886513ad"><ellipse cx="45" cy="151" rx="12" ry="12" transform="matrix(1.000000011949906,1.7453292728508502e-8,-1.745329272850848e-8,1.0000000119499037,0.0000020977014330014754,-0.0000025898336559748714)" style="fill: rgb(255, 255, 255); fill-opacity: 1;"/></g><g id="shape-de415051-41d3-11ec-a301-e199886513ad"><ellipse cx="77" cy="182" rx="12" ry="12" transform="matrix(1.0000000119499108,1.7453292728508598e-8,-1.74532927285084e-8,1.0000000119499002,0.0000022563561401511834,-0.000003518785376854794)" style="fill: rgb(255, 255, 255); fill-opacity: 1;"/></g><g id="shape-de415052-41d3-11ec-a301-e199886513ad"><ellipse cx="109" cy="182" rx="12" ry="12" transform="matrix(1.0000000119499142,-3.639594738726171e-23,-4.3013392366763644e-23,1.0000000119499113,-0.0000013025406389033378,-0.0000021748838605617493)" style="fill: rgb(255, 255, 255); fill-opacity: 1;"/></g><g id="shape-de415053-41d3-11ec-a301-e199886513ad"><ellipse cx="45" cy="182" rx="12" ry="12" transform="matrix(1.0000000119499062,-3.639594695233322e-23,-4.9630836753181425e-23,1.0000000119499064,-5.377457767963278e-7,-0.0000021748829510670475)" style="fill: rgb(255, 255, 255); fill-opacity: 1;"/></g><g id="shape-de415055-41d3-11ec-a301-e199886513ad"><path d="M287.8708889929276,85.67111385041039C350.0317789950036,85.67111385041039,371.34408413857227,133.36496042269414,371.34408413857227,164.7042454244786C371.34408413857227,192.76916657557126,348.25575356637273,217.98500828340093,348.25575356637273,217.98500828340093L348.25575356637273,287.25L255.01441856325846,287.25L255.01441856325846,257.94558042759286C255.01441856325846,257.94558042759286,237.50280783695962,260.64513907911146,227.48602441948196,247.2894278558083C222.03418136153232,240.02030377854157,221.24377650317365,237.3812113638553,220.38192270495892,231.33258737336382C218.8966002016532,220.90836304932554,220.38192270495892,209.10488114024724,220.38192270495892,209.10488114024724C220.38192270495892,209.10488114024724,211.5656526558687,210.7225941898464,204.83671136896646,206.61046340340636C200.9095000840839,204.21050095153373,201.73365570433612,198.44872856846268,201.73365570433612,198.44872856846268L217.71788456201284,157.60014370995555C217.71788456201284,157.60014370995555,217.34361553145936,135.63223542964602,232.57930632802982,115.59829136272765C243.69724285525672,100.97892677335471,263.3117873626429,85.67111385041039,287.8708889929276,85.67111385041039Z" style="fill: rgb(255, 143, 0); fill-opacity: 1;"/></g><g id="shape-de417761-41d3-11ec-a301-e199886513ad"><ellipse cx="294" cy="120" rx="12" ry="12" transform="matrix(1.0000000119498897,0,-1.3234889800848566e-23,1.000000011949902,-0.0000035132675861859752,-0.0000014339882312697227)" style="fill: rgb(255, 255, 255); fill-opacity: 1;"/></g><g id="shape-de417762-41d3-11ec-a301-e199886513ad"><ellipse cx="294" cy="151" rx="12" ry="12" transform="matrix(1.00000001194989,7.27918947745217e-23,6.617444979502034e-23,1.0000000119498997,-0.000003513267643029394,-0.000001804434873520222)" style="fill: rgb(255, 255, 255); fill-opacity: 1;"/></g><g id="shape-de417763-41d3-11ec-a301-e199886513ad"><ellipse cx="294" cy="182" rx="12" ry="12" transform="matrix(1.0000000119499,-1.7867101231145398e-22,-1.852884572118782e-22,1.000000011949901,-0.000003513270598887175,-0.000002174881984728927)" style="fill: rgb(255, 255, 255); fill-opacity: 1;"/></g><g id="shape-de417765-41d3-11ec-a301-e199886513ad"><ellipse cx="92" cy="65" rx="12" ry="12" transform="matrix(1.0000000119499042,-7.279189477452272e-23,-6.948317228477137e-23,1.0000000119499015,-0.0000010993911843115711,-7.767436045469367e-7)" style="fill: rgb(255, 143, 0); fill-opacity: 1;"/></g><g id="shape-de419e70-41d3-11ec-a301-e199886513ad"><ellipse cx="116" cy="38" rx="12" ry="12" transform="matrix(1.0000000119499088,-8.271806125530277e-23,-8.933550615572699e-23,1.0000000119499017,-0.0000013861894245792428,-4.540962663668324e-7)" style="fill: rgb(255, 143, 0); fill-opacity: 1;"/></g><g id="shape-de419e71-41d3-11ec-a301-e199886513ad"><ellipse cx="149" cy="18" rx="12" ry="12" transform="matrix(1.0000000119498993,1.74532927285082e-8,-1.7453292728508823e-8,1.0000000119499135,-0.000001466375721292934,-0.0000028156390570188705)" style="fill: rgb(255, 143, 0); fill-opacity: 1;"/></g><g id="shape-de419e72-41d3-11ec-a301-e199886513ad"><ellipse cx="185" cy="12" rx="12" ry="12" transform="matrix(1.0000000119498984,-2.9778502407759014e-22,-3.044024690570958e-22,1.0000000119499088,-0.0000022107311963281973,-1.433989069710151e-7)" style="fill: rgb(255, 143, 0); fill-opacity: 1;"/></g><g id="shape-de419e73-41d3-11ec-a301-e199886513ad"><ellipse cx="221" cy="18" rx="12" ry="12" transform="matrix(1.0000000119498906,-4.863822001811803e-22,-4.896909226313924e-22,1.0000000119499075,-0.0000026409258282455994,-2.150983355875269e-7)" style="fill: rgb(255, 143, 0); fill-opacity: 1;"/></g><g id="shape-de419e74-41d3-11ec-a301-e199886513ad"><ellipse cx="256" cy="37" rx="12" ry="12" transform="matrix(1.000000011949913,0,-3.308722489751057e-24,1.000000011949914,-0.000003059177743125474,-4.4214681338416995e-7)" style="fill: rgb(255, 143, 0); fill-opacity: 1;"/></g><g id="shape-de41c580-41d3-11ec-a301-e199886513ad"><ellipse cx="279" cy="65" rx="12" ry="12" transform="matrix(1.0000000119498988,3.3418096747142323e-22,3.2756352257099896e-22,1.0000000119499006,-0.000003334021755563299,-7.767435477035178e-7)" style="fill: rgb(255, 143, 0); fill-opacity: 1;"/></g></g></svg>