<svg xmlns:xlink="http://www.w3.org/1999/xlink" width="39.96189993153257" xmlns="http://www.w3.org/2000/svg" id="screenshot" version="1.1" viewBox="-0.14401211371296085 -0.1310623126776136 39.96189993153257 30.02716958661813" height="30.02716958661813" style="-webkit-print-color-adjust: exact;"><g id="shape-77788570-44fb-11ec-9b7f-cda5338e56df" y="0px" xml:space="preserve" xmlns:xlink="http://www.w3.org/1999/xlink" x="0px" version="1.1"><g id="shape-77788571-44fb-11ec-9b7f-cda5338e56df"><style type="text/css" style="fill: rgb(255, 143, 0); fill-opacity: 1;">.st0{fill-rule:evenodd;clip-rule:evenodd;}</style></g><g id="shape-77788573-44fb-11ec-9b7f-cda5338e56df"><g id="shape-77788574-44fb-11ec-9b7f-cda5338e56df"><path class="st0" d="M34.64390198169167,29.896104480956637L27.463414176813785,29.89610448160056C24.699186534537148,29.896104481847942,22.439023933113276,27.647547336659045,22.439023933361568,24.89751341783449C22.439023934288343,14.612386561431776,19.798373528801676,3.3146001563327445,32.4682922282791,0.08897213511681912C38.208129626784284,-1.370163509384838,39.70406458556772,4.919325829532681,33.5999995448783,5.35286058904785C29.876422309082045,5.618157979197349,29.147967024313402,8.01230515565203,29.034145885776525,11.629408592421896L34.79349547927177,11.629408591905303C37.557723121548406,11.62940859165792,39.81788572297228,13.877965736846818,39.817885722723986,16.627999655670465L39.81788572199275,24.74545271723582C39.817885721737184,27.579605320635892,37.48943043697636,29.89610448070198,34.64390198169167,29.896104480956637ZL34.64390198169167,29.896104480956637ZZM12.289430436976545,29.896104482960254L5.108942632097751,29.896104483603267C2.344714989822023,29.89610448385156,0.08455238839815138,27.647547338661752,0.08455238864553394,24.897513419837196C0.08455238957230904,14.612386563434484,-2.5560980159134488,3.3146001583363613,10.113820683563972,0.08897213712043595C15.856910114589482,-1.3733988414051055,17.35284507337292,4.9160904975151425,11.245528000162267,5.352860591051467C7.52195076436692,5.618157981200966,6.793495479598278,8.012305157654737,6.67967434106049,11.629408594425513L12.442275967076966,11.62940859390892C15.206503609353604,11.629408593660628,17.466666210776566,13.877965738850435,17.466666210529183,16.62799965767408L17.46666620979795,24.745452719239438C17.46341417702206,27.57960532263951,15.134958892260329,29.896104482704686,12.289430436976545,29.896104482960254ZL12.289430436976545,29.896104482960254ZZ" style="fill: rgb(255, 143, 0); fill-opacity: 1;"/></g></g></g></svg>